<svg id="图层_1" data-name="图层 1" xmlns="http://www.w3.org/2000/svg" viewBox="0 0 683.94 240"><title>画板 1</title><path d="M384.57,79.35l1.28-.8.19.18-16,17.63c2.15-.23,4.19-.5,6.25-.63a1.88,1.88,0,0,1,1.52.66c.55,1.17,1.48,1.38,2.59,1.59,3.39.62,6.74,1.55,10.15,2,1.87.22,2.79,1.38,3.91,2.46,1.92,1.85,3.8,3.75,5.71,5.62,4.1,4,6.67,9,8.7,14.29a4.13,4.13,0,0,1,.33,1.32c.17,6.44,1.07,12.92-1.5,19.19-1.3,3.19-2.08,6.6-3.26,9.85a13.48,13.48,0,0,1-2.12,3.82C399.56,160,396.9,163.36,396,168c-.36,1.86-2.11,3.5-3.39,5.12a18,18,0,0,1-2.79,2.49c-2.34,1.89-4.2,4.15-7,5.69-5.76,3.13-11.08,7.1-16.43,10.93-7.49,5.36-15.76,9.2-24.15,12.86a2.46,2.46,0,0,1-1.9-.08c-2.74-1.39-5.29-1-8.11,0-8.47,3.11-17,6-25.58,8.86a11.56,11.56,0,0,1-4.3.52,32,32,0,0,0-11.74,1.11c-5.68,1.77-11.54,2.95-17.34,4.28a8,8,0,0,1-2.62-.28l0-.56c5.87-1.89,11.74-3.77,17.6-5.69a22.75,22.75,0,0,0,2.92-1.36c5.33-2.66,10.64-5.34,16-8,2.34-1.16,4.71-2.26,7-3.41a4,4,0,0,0,1.55-1.27l-2.8.83-.22-.66a24.68,24.68,0,0,1,4.41-1.56A46.56,46.56,0,0,0,333,192.53c7.17-4,14.38-8,21.51-12.09,3.78-2.16,7.43-4.54,11.13-6.84.46-.29.87-.67,1.54-1.18l-2.36-.32c1.49-1.21,2.7-2.2,3.93-3.18a55,55,0,0,0,11.46-11.6,22.57,22.57,0,0,0,3.66-18.15,30.21,30.21,0,0,0-6.42-13.37c-3.46-4.13-8.1-5.45-13.2-5.66a58.38,58.38,0,0,0-17,1.88,97.38,97.38,0,0,1-11.59,1.81c-1.62.2-2.29-.52-2.33-2.16,0-1,.12-1.93.06-2.89a2,2,0,0,0-2.57-2c-1.22.2-2.74,1.43-3.58,0-1.11-2-3.12-4-1.81-6.55a33.18,33.18,0,0,1,4.16-6.94c6.82-7.84,13.87-15.49,20.8-23.24a43.44,43.44,0,0,0,3.32-4.32c.77-1.14.43-1.83-1-1.9a7.89,7.89,0,0,0-2.85.38c-8.47,2.81-16.17,6.89-22.26,13.61a3.79,3.79,0,0,1-5.32.63,2.64,2.64,0,0,0-2.68-.34c-2.17.65-4.36,1.22-6.54,1.84-4.29,1.22-10.38-2.72-9.84-8.43a12.27,12.27,0,0,0-.89-4.72,8,8,0,0,1-.47-3.93,24.64,24.64,0,0,0-.2-5.11l1.26.41a3.26,3.26,0,0,0-.12-.84,3.59,3.59,0,0,1,0-3.7,9.22,9.22,0,0,0,.8-2.77A12.52,12.52,0,0,1,306,55.68c1-1.39,1.35-3.19,2-4.79.6-1.39,1.25-2.75,1.88-4.12l.61.27c-.36,1.05-.78,2.09-1.07,3.16s-.41,2.14-.61,3.22l.47.13a7.15,7.15,0,0,0,.63-1.23,19.28,19.28,0,0,1,5.22-8.78,109,109,0,0,0,9.5-10.42c3.29-4.13,7.94-5.91,12.5-8.11L338.59,27l6.34-3.34.36.24a5.69,5.69,0,0,1-.93,1.43,18.69,18.69,0,0,1-2.65,1.84c-5.89,3.43-9.71,8.8-13.46,14.24-.05.08,0,.21,0,.41,1.57.7,2.54.32,3.55-1.22a40.31,40.31,0,0,1,4.52-5.28,1.73,1.73,0,0,1,1.5-.48c1.94.82,3-.1,4.38-1.41s3.14-2.39,5.16-1.48l-5.25,3.19a1.9,1.9,0,0,0-1,2.37c.16.73-.48,1.68-.88,2.46a15.56,15.56,0,0,1-1.29,1.87l.44.45c.69-.3,1.39-.58,2.07-.9,10.82-5.25,21.92-9.66,34-10.93a46,46,0,0,1,7.94-.35c3.77.26,7.34,4.14,7.44,8a4.38,4.38,0,0,0,2.66,4.19c3.72,1.73,5.62,4.86,6.74,8.54a23.08,23.08,0,0,1,.56,4.8c.16,2,.34,4.07.38,6.11.07,3.84-.62,4.8-4.27,5.86-2.08.6-3.77,1.48-4.39,3.79-.16.57-.83,1-1.34,1.46-1.93,1.59-3.93,3.09-5.81,4.74-.45.38-.52,1.2-.76,1.82a6,6,0,0,0-2.18.76q-8.4,7.74-16.67,15.62a42.5,42.5,0,0,0-2.9,3.37l.32.41a9.24,9.24,0,0,0,2.26-.92,53.33,53.33,0,0,0,5.25-4.32c1.32-1.27,2.28-2.9,3.53-4.24,1.53-1.64,3.22-3.12,4.79-4.71.47-.48.72-1.16,1.19-1.63C381.6,82.22,383.1,80.8,384.57,79.35Zm6.76,89,1.16.18,1.52-3.31-.42-.24-2.22,3.41c-1.8.71-2.41,1.77-1.65,3.17L390,170C391.35,170.47,391.42,170.38,391.33,168.3ZM315.39,59.36l.71.27,4.14-9.28c-1.52-1.37-2.37-1.52-3.1-.36-3.43,5.38-6.46,10.94-7.24,17.41a5.23,5.23,0,0,0,.36,1.69l.46,0c1.66-6,3.55-12,7.47-17ZM324.54,39l-6.35,8.5,3.48.81c.78-1,1.75-2.1,2.58-3.31,1.18-1.71,2.29-3.49,3.37-5.27a4.75,4.75,0,0,0,.36-1.38c-.47.15-1.19.15-1.38.47C326,39.86,325.41,40,324.54,39Zm76.57,112.62.46.12a10.54,10.54,0,0,0,.54-1.48c.69-3.56,1.4-7.12,2-10.69a36.07,36.07,0,0,0,.69-5.84,25.43,25.43,0,0,0-.67-5,14.07,14.07,0,0,0-.92-2.43l-.43.16c.07.55.15,1.11.23,1.66.61,3.92,1.4,7.83.14,11.79a29.72,29.72,0,0,0-.88,4C401.86,146.47,401.5,149.07,401.11,151.66Zm-17.56,26a13.61,13.61,0,0,0,3.78-2.38c1.25-.95,2.87-1.44,3-3.45Z"/><path d="M431.24,106c-2.8,1-5.58,2.14-8.41,3.11-2.05.69-2.33.53-3-1.46-.75-2.38-1.41-4.79-2.1-7.19a2.41,2.41,0,0,1,1-2.84c7.28-5,12.52-12.18,18.71-18.35a18.39,18.39,0,0,0,4.91-8.06c.11-.37.15-.76.26-1.36-1.83.47-1.54,2.2-2.54,3.54l.77-4-1-1.33a13,13,0,0,0-1.52-1.91c-.91-.82-2-1.5-2.86-2.19A6.67,6.67,0,0,1,441,62.57a4.28,4.28,0,0,1,1.45.78,26.56,26.56,0,0,0,2.75,1.75c1.18.57,2.55.78,3.69,1.42,2.31,1.32,4.53,2.81,6.77,4.25,1,.64,2.74,5.11,2.24,6.18a3.33,3.33,0,0,1-1.6,1.34A47.3,47.3,0,0,0,443.17,87c-.6.57-1.13,1.21-2.1,2.26,3.2-.42,6.09-1.13,7.41,2.38l1.68-1.91c.43,3.83-1.65,6.65-2.6,9.86l1.34-1.45.27.16a10.88,10.88,0,0,1-.75,1.39c-3.94,5.27-7.84,10.58-11.89,15.78-1.09,1.4-1.18,2.36.07,3.61a37,37,0,0,1,2.59,3.21l9.67-13.56c.09-.14.24-.35.2-.44-1.1-2.35,1-3.62,1.82-5.28a35.85,35.85,0,0,1,2.34-3.63l.61,1c.81-1.69,1.67-3.17,2.25-4.76A2.24,2.24,0,0,1,458.72,94c2.63.63,4.68-.9,7.17-1.31-.71-2.94-1.31-5.7-2.05-8.43A2.52,2.52,0,0,1,465.09,81a30.91,30.91,0,0,0,12.16-13.47c1.22-2.6,1.12-3.12-1-4.86l.79-.37-1.5-.61a4.2,4.2,0,0,1,5.9-3.51c1.24.52,2.56.84,3.83,1.29.5.18,1,.48.85.82l-.84,5,.43.18,1.19-.94.27.13L485.86,68c2.67-.66,5.07-1.21,7.44-1.86s4.78-1.43,7.17-2.15c3.23-1,4-.63,5.63,2.3.24.44.47.88.75,1.38-4,4.64-8,9.35-13.16,12.76-.47.31-1,.89-1.45.83-3-.38-3.23,2.41-4.65,3.82l.2.39c2.29-.74,4.58-1.49,6.87-2.22,3.62-1.16,7.21-2.41,10.87-3.41a4.76,4.76,0,0,1,3.15.54c2.08,1.12,4,2.5,6.1,3.82-1,1-1.77,2-3.21,1a1.1,1.1,0,0,0-1-.06c-1.86,1.45-4.1.82-6.15,1.21a5.37,5.37,0,0,0-2.3,1.07l3.64-.93.09.29c-1.88.68-3.78,1.32-5.64,2.07-3.51,1.4-7,2.81-10.47,4.34A9.35,9.35,0,0,0,484,99.5L496,111.93c1.9-3.66,4.43-7,4.38-11.33,0-1.72,1.8-1.23,2.63-2.55l3.58,7.51.59-2.53a19.9,19.9,0,0,1-2.29,10.22c-.34.59-.66,1.19-1,1.79a3.53,3.53,0,0,0,.51,4.39c2.37,2.6,4.65,5.3,7.14,7.78,3.59,3.56,7.37,6.93,11,10.44a5.77,5.77,0,0,0,6.42,1.35c3.58-1.23,7.19-2.36,10.91-3.28l-1.76,1.33.1.22,11.25-4,.2.49-7,3.41.22.46,5.92-2.51.19.39a38.42,38.42,0,0,0-4.71,2.5c-5.45,3.87-10.82,7.85-16.42,11.95l1.28.36c-.38,1-4,3.43-5,3.31-2.26-.25-4.51-.53-6.77-.82a2.83,2.83,0,0,1-1.14-.3c-3.35-2.14-6.7-4.29-10-6.5a3.33,3.33,0,0,1-1-1.37c-1.44-3-2.75-6-4.3-8.88-1.32-2.49-2.91-4.83-4.38-7.23l-.46.14a7.86,7.86,0,0,0-.32,1c-1,6.15-1.87,12.35-3.11,18.46a84.63,84.63,0,0,1-3.12,10.06c-.43,1.28-4.11,2.37-5.34,1.83-1.7-.75-3.44-1.47-5.2-2.06a5.15,5.15,0,0,1-3.09-2.7,6.34,6.34,0,0,0-2.45-2.6c-3.23-1.64-6.59-3-9.9-4.53a4.09,4.09,0,0,1-1.53-1c2.18.18,4.36.33,6.54.55a12.45,12.45,0,0,0,7-.81,3.13,3.13,0,0,1,1.79-.38c1.42.3,2.05-.33,2.52-1.55a78.81,78.81,0,0,0,5-18.71,2.79,2.79,0,0,0,0-.54l-12.13,12.13.16.2,3.37-2.82c0,.28,0,.48-.07.56a38.54,38.54,0,0,1-11.85,8.75c-.81.4-1.49.52-1.62-.77l-2.84,1.5c7.24-7.32,15.14-14,19.79-23.76a6.16,6.16,0,0,0-4.85,2.64c-2.4,3-4.75,6-7.22,9l-2.08-1.57c-.38.43-.92,1-1.48,1.69-2.21-.88-3.19,1.58-5.57,2a15.32,15.32,0,0,1,1.28-2.65q8.33-10.68,16.73-21.31a8.26,8.26,0,0,1,1.65-1.69c1.58-1.11,2.52-.94,3.79.49,2.58,2.9,2.58,2.9-.38,5.34L479,117.59l6.13,2c1.16-5.57.09-10.34-4.19-14.32-.35.3-.68.57-1,.86l-15.38,14.5c-.12.12-.31.21-.36.35-.86,2.5-3.64,2.79-5.17,4.52a2.8,2.8,0,0,1-1.89.65l1.06-1.56-.18-.15-3.49,2.76-.34-.34,3.37-3.77-.18-.29-4.3,2.28-.36-.43L478,97.57l-.17-.29c-1,.54-2.09,1-3.06,1.62-3.9,2.55-7.72,5.21-11.66,7.7a30.76,30.76,0,0,1-4.76,2.21,3.89,3.89,0,0,1-1.85.24c-2.89-.36-2.77-.36-3.45,2.47-.77,3.13-1.8,6.19-2.68,9.3-2.71,9.66-5.45,19.32-8.07,29a10.5,10.5,0,0,1-3.39,5.38c-.8.68-2,.85-3.31,1.34l-1.17-2L431.87,157c.48-5.4-2.4-9.13-5.54-12.84a5.18,5.18,0,0,1-.69-5.79c1.1-2.23,2.43-4.35,3.71-6.49,1.77-3,3.21-6,3-9.59,0-.33-.07-.66-.16-1.43-1.62,1-3,1.87-4.42,2.8-2.58,1.71-3.13,1.59-4.71-1.14-1.72-3-1.48-5.38.81-7.94,2.5-2.78,5-5.54,7.54-8.31Zm42-25.93.29.48c3.08-.7,6.13-1.61,9.25-2s4.32-2.8,5.93-4.81l-.27-.5-5.16,2c-.46-.11-1.55-.75-2.07-.44C478.49,76.45,475.89,78.32,473.25,80.11Zm.11,10.78.18.39c3.17-1.29,6.35-2.53,9.48-3.9.5-.22.77-1,1.14-1.51l-.42-.37Zm-19.25,14.88c-3.32.47-3.72,2.63-4.35,4.88l1.26-1.08.21,2C452.24,109.54,453.08,107.84,454.11,105.77Z"/><path d="M613.05,160.56a15,15,0,0,1-5.88-3.15,92.82,92.82,0,0,0-17.7-11,18.58,18.58,0,0,0-2.36-1,4.39,4.39,0,0,1-3.29-2.78,1.33,1.33,0,0,0-.53-.7c-1.9-1-3.82-1.91-5.74-2.86l-.21.3,1.14.71-.28.35c-.47-.23-1-.44-1.41-.7-4.82-2.69-9.65-5.35-14.43-8.1a32.45,32.45,0,0,1-3-2.35c-1-.78-2.07-1.54-3.25-2.41-.39,1.65-1.55,1.31-2.43,1.21a2.59,2.59,0,0,0-3,1.81c-1.54,3.31-3.38,6.49-4.91,9.81-1.42,3.08-1.31,3.1-4.61,3a1.56,1.56,0,0,1-1.67-1.27c-1.74-4.83-2-9.91-2.75-14.91-.23-1.52.49-2.16,1.78-2.64a13.88,13.88,0,0,0,7.47-6.12l-1-.92c.61-.18,1.1-.28,1.56-.46.66-.25,1.57-.4,1.89-.89,1.45-2.28,2.74-4.66,4.08-7l-.26-.31c-1.3.55-2.58,1.15-3.91,1.63s-2.52.63-3.7,1.11a40.35,40.35,0,0,0-3.68,2c-1.14-.56-2.67-1.29-4.17-2.07-.23-.12-.56-.51-.5-.67.42-1.33-.74-1.49-1.36-2.13a2.89,2.89,0,0,1-.75-2,46.86,46.86,0,0,1,1-5.32c.08-.38.37-.92.69-1,1.81-.57,3.58-1,5.51,0a4.5,4.5,0,0,0,3.27,0c3.9-1.58,7.71-3.38,11.55-5.1l.68-.31c1.44-.67,3.38-1,4.18-2.1s.49-3.08.7-5l-1.7.68c-3.49,1.37-7,2.81-10.51,4.06a4.13,4.13,0,0,1-2.7-.18c-2.61-1.08-4.45-2.73-4.85-5.87s-1.38-6.37-2.05-9.56a12.38,12.38,0,0,1,0-2.31c3.31.89,6.73.93,9.16,3.59a2.14,2.14,0,0,0,2.57.63c3.9-1.57,7.79-3.15,11.64-4.82a2.22,2.22,0,0,0,.94-1.52c.27-1.63.39-3.29.55-4.94.27-3-.13-5.66-2.5-7.82-1.18-1.08-.65-4.75.84-5.87a14,14,0,0,1,3.39-1.91c1.92-.76,3.32.53,3.93,2.46,1.27,3.94.48,7.93.82,11.87a2.65,2.65,0,0,0,1.18,1.82c2.11,1.12,4.34,1.83,6.79,1,.75-.26,1.57-.31,2.35-.51s1.45-.4,1.93.66c.18.4,1.1.59,1.7.63,1.24.07,2.12.43,2.43,1.76a2.41,2.41,0,0,1-1.21,3c-5.14,2.92-10.24,5.93-15.39,8.81a2.8,2.8,0,0,0-1.65,2.26c-.18,1.38-.46,2.75-.74,4.41,2.26-.94,4.32-1.67,6.27-2.62,2.87-1.41,5.93-1.34,9-1.45a.37.37,0,0,1,.15,0c2.89,1.73,5.91,3.28,8.32,5.81L590,94.62c-2.42-.92-4.76-.41-7,.39-3.29,1.19-6.49,2.63-9.71,4a1.75,1.75,0,0,0-.91,1c-.95,4-1.84,8.11-2.74,12.18a1.89,1.89,0,0,0,.07.51c1.56-.79,3.3-1.09,4-3.09a3.13,3.13,0,0,1,2.29-1.42c2.48-.33,5-.42,7.5-.51,1.41,0,1.88.62,1.35,1.9q-1.33,3.19-2.88,6.28a2.61,2.61,0,0,1-1.35,1.11c-4.16,1.47-7.14,4.59-10.33,7.41a12.78,12.78,0,0,0-1.57,2.23c2,.88,3.69,1.81,5.51,2.46,7.78,2.78,15.55,5.64,23.43,8.14a38.76,38.76,0,0,0,10.89,2c7.11.1,14.32.17,21.32-.87,6.08-.91,11.93-3.35,17.87-5.15a34.7,34.7,0,0,1,4.92-1.38l-12.5,6.58.71.75c-2.4,2-4.77,4-7.21,5.87a5.24,5.24,0,0,0-2,3.57,15.63,15.63,0,0,1-2.31,6.93,9.08,9.08,0,0,1-6.21,4.1c-2,.31-4,.59-5.94.88ZM560.92,122.2c1-3.15,2.17-6,2.82-9s.82-6.13,1.24-9.48c-1.8,1.26-1.8,1.26-1.4,4-4.62,2.4-6.11,7.14-8.46,11.41Z"/><path d="M631,101a17.37,17.37,0,0,1,.4,2.21,17,17,0,0,1-.08,2.25c-.14,2.11.25,2.57,2.51,2.78.32,4,.71,8.12.93,12.2a6.36,6.36,0,0,1-.78,2.71c-.58,1.31-1.29,2.57-2,3.84a4,4,0,0,1-3.77,2c-6.58.15-13.15.39-19.73.41-5.92,0-11.84-.23-17.77-.29a4.19,4.19,0,0,1-3.8-2.2,13.65,13.65,0,0,1-1.8-10.81c2.13-9,6-17.19,10.3-25.28a9.39,9.39,0,0,1,.81-1.08l1,2.09c.43-.81.8-1.48,1.17-2.16l.14,0c-.41,2.42-.89,4.84-1.23,7.27-.7,5.07-1.34,10.15-2,15.23-.25,2,0,2.32,1.88,2.71,5,1,10,2.16,15,2.9a51,51,0,0,0,9.17.18,3.25,3.25,0,0,0,2.05-1.47,58.18,58.18,0,0,0,6.43-13.88,11.26,11.26,0,0,1,.48-1.26C630.42,101.27,630.6,101.21,631,101Z"/><path d="M608.63,104.05c-.15-.27-.25-.44-.33-.62-1.09-2.43-2.73-2.84-4.77-1-.95.85-1.42.59-2-.3A14.17,14.17,0,0,1,600.2,100a7,7,0,0,1-.24-2.25c0-1.28.07-2.57,0-3.85a30.32,30.32,0,0,0-.5-3l4.75,1.94c3.1-4,5.39-8.25,5.85-13.61a20.64,20.64,0,0,0-3.16,1.67,16.05,16.05,0,0,1-7.15,3c-1.28.24-2.51.71-3.79,1a5.24,5.24,0,0,1-5.38-1.9c-.6-.74-1.26-1.44-1.9-2.14a4.64,4.64,0,0,1-.6-5.79c.66-1.07,1.31-2.14,2-3.33.56.37,1.1.71,1.61,1.08a5.61,5.61,0,0,0,5.82.89c5.15-2.23,10.3-4.46,15.37-6.85,2.68-1.26,5.37-.89,8.11-.65a4.57,4.57,0,0,0,1.62.14c1.92-.6,3,.6,3.84,1.88.35.5.2,1.36.33,2.52l2-1.91C623.83,81.64,617.61,93.57,608.63,104.05Z"/><path d="M117,35.72c4.55,1.13,9.15,2.12,13.64,3.48a25,25,0,0,1,6.57,3.14A11.1,11.1,0,0,1,141.52,55a5.3,5.3,0,0,1-.77,1.31c-1.74,2.52-3.49,5-5.29,7.61,2.42,2.8,4.45,5.85,8.12,7.33a59.73,59.73,0,0,1,7.32,4c1.47.86,1.87,3.17.52,4.12-2.19,1.53-2.49,3.49-1.93,6-3,.77-5.89,1.73-8.86,2.21-3.28.53-5.94,2.14-9,4.11a50.38,50.38,0,0,1,5,2A39.82,39.82,0,0,1,142,97.13c1,.76.7,1.84-.28,2.56q-3,2.16-6,4.21a6.45,6.45,0,0,1-1.7.74c-5.24,1.63-12.89,6.37-15.63,9.62a50.75,50.75,0,0,0,6.24,2.44,9.05,9.05,0,0,0,4.15-.26c5.17-1.24,10.39-2.16,15.68-1.22a17.61,17.61,0,0,1,5.94,2.4c2.41,1.51,2.61,4.35.46,6.82a89,89,0,0,1-6.43,6.3c-1.57,1.48-3.27,2.81-4.84,4.29-5.14,4.82-10.24,9.68-15.36,14.52-.4.39-.81.76-1.22,1.15l.14.49c2-.51,4-1,6-1.52a12.2,12.2,0,0,1,1.91-.69,8,8,0,0,0,5.63-3.09c2.23-2.56,4.58-5,6.9-7.51a5.21,5.21,0,0,1,.9-.58c.18.8.35,1.42.47,2a26.32,26.32,0,0,0,.76,4.18,14.8,14.8,0,0,1,.13,8.86,3.69,3.69,0,0,1-3.35,3c-7.77,1.31-15.58,2.46-23.27,4.13-3,.65-5.77,2.35-8.46,3.9a155.94,155.94,0,0,0-14.43,9,38.38,38.38,0,0,1-10.23,5.87c-.91.32-1.82.64-2.74.92A6.21,6.21,0,0,1,76,176.84c-2.22-3.63-4-7.39-3-11.84a3.11,3.11,0,0,1,.7-1.46,18.34,18.34,0,0,1,7.4-4.93A93.55,93.55,0,0,0,91.3,154,41.4,41.4,0,0,0,95,151.64c-3.63-.62-3.42-3.51-4.21-5.72-1-2.81-1.89-5.68-2.93-8.84-2.13,1.62-4.17,3-6,4.57-5,4.49-9.75,9.2-14.77,13.64-4.42,3.91-9.06,7.58-13.92,11.13l1.84-2.8-6.37,5.53L48.5,169l1.2-2.86-.24-.2q-12,12.08-24,24.17l-.18-.16c1.08-1.24,2.28-2.39,3.23-3.72,2.28-3.19,4.54-6.4,6.63-9.71,6.73-10.63,13.92-20.9,22.58-30.07A25.27,25.27,0,0,0,59.57,144l-.53-.4c-3.34,3.82-6.76,7.56-10,11.47s-6.22,7.93-9.52,11.81c.32-.56.63-1.12,1-1.67,5.65-9.45,12.84-17.75,19.63-26.35a143.24,143.24,0,0,0,10.57-14.42c3.1-5.16,7-9.64,10.34-14.62S87.21,99.86,90.39,95c4.79-7.39,7.53-15.74,11.28-23.61a4.27,4.27,0,0,1,1.07-1.58l-1,3.41.2.07c.34-.8.65-1.6,1-2.39,2.08-4.47,4.23-8.91,6.23-13.41,1.4-3.16,2.73-6.35,3.83-9.62.86-2.53-1.12-6.55-3.5-7.75a2.4,2.4,0,0,1-.87-.52c-.45-.59-1.18-1.32-1.09-1.88s1-1.11,1.56-1.57a3.5,3.5,0,0,1,1.1-.39Zm-2.27,81.14c-4.66,2.85-9.66,7.9-9.81,9.73,1.49-.58,2.3-2.4,4.38-2.57-.82,2.24-1.55,4.2-2.24,6.16-.17.48-.49,1.15-.29,1.46,1.3,2.08.51,4.26.24,6.32-.43,3.32-.08,7-3,9.59a52,52,0,0,0,14-9.93c-2.74-.94-3.94-2.83-5.09-5.13a8.63,8.63,0,0,1-.55-6.51Zm4.67-25.55c1.61-1.38,2.94-2.36,4.07-3.52,1.81-1.85,3.51-3.8,5.21-5.74a1.86,1.86,0,0,0,.5-1.34c-.39-1.66-.93-3.29-1.46-5.1A52.82,52.82,0,0,0,119.44,91.31ZM102.8,120.05l.26.25,7.49-6.57-1.66-2a8.86,8.86,0,0,1-.56,1.06Q105.57,116.43,102.8,120.05Zm24.26,8.1a10,10,0,0,0,4.47-6.44C128,122.26,128.1,125.35,127.06,128.15Z"/><path d="M193.24,211.92c0-1.62,0-3.25,0-4.88-.14-4,.23-8.12-.62-12-.9-4-.19-8.15-1.21-12.11-.54-2.06-1-4.14-1.95-6.77l-.46,1.58-.26-.22c0-4.53-.14-9.06,0-13.57.31-7.84.78-15.67,1.26-23.5,1.59-26.42.11-52.83.05-79.25,0-4.2.14-4.49,4.13-5.82l-1.52-1c2.59-.47,4.82-.83,7-1.31a11.72,11.72,0,0,0,2.24-1l0-.53c.42.33,1.21.65,1.2,1,0,2.29,1.81,2.12,3.15,2.57a18.72,18.72,0,0,0,2.51.45c.12,3.11.45,6.27.32,9.42-.49,12-1.09,24-1.73,35.93-.63,11.68-1.22,23.37-2.09,35-.59,7.93-1.57,15.83-2.47,23.73q-1.72,15.24-3.61,30.46c-.16,1.31-.8,2.57-1,3.88-.32,2.13-.26,4.33-.72,6.41-.74,3.31-1.74,6.55-2.7,9.8a8.66,8.66,0,0,1-1.1,1.86Z"/><path d="M156.1,89.92c.69-4.36.69-4.36,4.1-5,1.46,1.74,2.76,3.51,4.31,5,1.4,1.38,2.38,1.17,3.85-.41a113.05,113.05,0,0,0,15.07-20,1.42,1.42,0,0,1,.87-.75c-.82,3.4-1.58,6.81-2.46,10.19S180,85.9,179,89.47a12.85,12.85,0,0,0,2.11.33c2.32,0,3.18,1.19,2.32,3.28a42.44,42.44,0,0,0-2.8,7.47c-.7,3.41-.72,7-1.14,10.43q-.49,4-1.3,8.06a3,3,0,0,1-1.29,1.77,58.75,58.75,0,0,1-6.42,3.51A2.73,2.73,0,0,1,168,124c-2.21-1.93-4.27-4-6.35-6.11s-2.7-4.68-3.41-7.43c-1.54-6-3.45-12-5.27-17.93-.31-1-.72-1.81.22-2.76s1.53,0,2.28.11Z"/><path d="M274.45,155.11c1.78-2-1.17-1.28-1.06-2.36.76-1.4.33-1.83-2-2-1.25-2.23-3.93-1.06-5.27-2.55l1.87-.44.15-.53c-.56-.29-1.11-.82-1.68-.85-4.33-.26-8.24-1.9-12.16-3.54a1.17,1.17,0,0,1-.46-.4l9.52.64-.16-.73a21.23,21.23,0,0,1,2.05-1.09,5.56,5.56,0,0,1,1.67-.32c6.17-.46,9.42-4.44,11.61-9.65a7.19,7.19,0,0,0,.4-2.66c.05-2.36,0-4.72,0-7.07s.14-5,.28-7.47c.33-6,.8-12,1-18,.18-5.33.18-10.68.06-16-.07-3.25-1.63-4.4-4.83-4a22.36,22.36,0,0,0-7.64,2c-4.29,2.14-8.83,3.83-13.32,5.55-2.47,1-5.19,1.35-7.58,2.45s-4.32.48-6.15-1.1c-1.14-1-2.26-2-3.41-3-2.4,2.87-3,6.51-3.38,10.18a44.21,44.21,0,0,0-.13,5.4,1.33,1.33,0,0,0,.81,1c3.39.3,5.47,2.18,6.69,5.25a5.08,5.08,0,0,0,1.41,1.85c.76-3,3.4-5.25,2.53-8.77-.38-1.54-.06-3.27-.06-5.1,3.15-.52,6.3-.47,8.63,1.86,1,1,1,3,1.58,5.25l4.46,2.41c.56-1.81,1.13-3.55,1.63-5.32.92-3.28.33-5-2.39-7.13-.36-.28-.69-.58-1-.89.12-.1.23-.22.26-.2,1.69.92,3.14.6,4.8-.39,2.95-1.75,6.1-2.06,9.21.1L273.44,86a19,19,0,0,0,1.74,1.44c1.84,1.22,2.53,4.76,2.4,6.64-.36,5.54-4,9.38-6.42,13.87a3.88,3.88,0,0,0-.23.79c3.63,2.34,6.55,5.29,6.89,9.92a7.85,7.85,0,0,1-1.56,5.49l-8.32-8a46.88,46.88,0,0,1-2.18,5.31,12.38,12.38,0,0,1-2.64,3c-.87.77-2,1.23-2.94,1.92-3.9,2.86-8,5.13-13,5.22a8.91,8.91,0,0,1-2.35-.3c-1-.24-2.19-.25-2.2-1.85,0-.4-.88-.79-1.08-1.12-.12-3.85,3-4,5.79-5l-3.6-3c-3.56,3.33-6.8,6.51-10.22,9.47-1.25,1.09-3,1.65-4.87,2.68-.84,3.41-1.82,7.46-2.84,11.51-.46,1.82-1,3.63-1.5,5.42-.47,1.52-.57,3.31-2.58,3.85-.25.06-.43.49-.61.77-.79,1.29-1.92,1.39-2.42,0a20.14,20.14,0,0,1-.69-4.62c-.07-.6.12-1.24,0-1.83a53.83,53.83,0,0,1-1-5.83c-.51-11.2-.55-22.41.94-33.52.55-4.1,2.37-8,3.51-12.05a6.71,6.71,0,0,0,.06-2.89c-.31-1.71-.95-3.37-1.19-5.08-.08-.59.54-1.39,1-1.92,1.08-1.16,2.27-2.22,3.43-3.31.95-.9,1.81-1.17,2.8.08,1.26,1.58,2.66,3,4.12,4.7,1.38-2,2.72-4.06,4.26-6a10.06,10.06,0,0,1,3-2.63c6.91-3.75,14.42-5.74,22.07-7.22,2.26-.43,4.59-.54,6.87-.86,3.89-.54,7.76-1.5,11.65-1.6a27.35,27.35,0,0,1,10,1.42c2.32.86,4.32,3.08,6,5.1.62.76,0,2.7-.29,4a15.4,15.4,0,0,1-1.77,3.86l.3-3.08-.49-.06a50.76,50.76,0,0,0-1.38,5.63,201.22,201.22,0,0,0-2,28.7c.07,4.65,0,9.3,0,13.95a40.32,40.32,0,0,1-6.66,22.19,20.7,20.7,0,0,1-3.13,3.79C278.28,156.76,276.48,156.69,274.45,155.11Zm-41.78-51.32-.63,0c-1,5.54-2,11.06-3,16.61-.09.49.3,1.48.62,1.55a2.52,2.52,0,0,0,2.08-.36c2.36-2.9,4.57-5.91,6.85-8.92Zm19.48.79c-1.56,4.77-3.26,9.21-.89,14.45,1.68-3.43,3.2-6.5,4.65-9.61a1.68,1.68,0,0,0-.07-1.49C254.76,106.8,253.53,105.81,252.15,104.58Z"/></svg>